<?xml version="1.0" encoding="utf-8"?>
<!-- Svg Vector Icons : http://www.onlinewebfonts.com/icon -->
<!DOCTYPE svg PUBLIC "-//W3C//DTD SVG 1.1//EN" "http://www.w3.org/Graphics/SVG/1.1/DTD/svg11.dtd">
<svg version="1.1" xmlns="http://www.w3.org/2000/svg" xmlns:xlink="http://www.w3.org/1999/xlink" x="0px" y="0px" viewBox="0 0 256 256" enable-background="new 0 0 256 256" xml:space="preserve">
<metadata> Svg Vector Icons : http://www.onlinewebfonts.com/icon </metadata>
<g><g><g><path fill="#000000" d="M98.9,7.1c-11.1,1.7-21.6,7.6-27.4,15.4c-6.9,9.2-9.6,18.6-10.1,36c-0.9,29.4,7.3,50.7,23.3,60.3c10.7,6.4,27.8,7.4,40.1,2.3c14-5.8,22.9-19.3,26.7-40.2c0.9-5,1.1-8.2,1.2-18.2c0.1-23.4-3.6-34.7-14.7-44.9c-4.7-4.4-11.3-7.9-18.3-9.7C114.6,6.9,104,6.3,98.9,7.1z"/><path fill="#000000" d="M69.9,139.4c-6.8,3.4-22.4,11.9-29.3,15.9c-19.7,11.4-25.3,16.9-28.4,27.3c-1.8,6.2-2.2,12.1-2.2,39.9v26.8h80.9l80.8-0.1l-1.6-1.1c-3.8-2.7-10.1-9.5-12.9-13.8c-3.5-5.3-5.9-10.6-7.5-16.9c-1.7-6.3-1.7-18.7,0-25.4c1.4-5.4,4.7-12.9,8-17.8c3.2-4.7,10-11.3,14.9-14.4c3.6-2.3,4-2.7,3.2-3.2c-4.4-3.1-34.1-18.7-34.6-18.2c-0.1,0.2-4.3,13.1-9.2,28.7c-5,15.6-9.1,28.5-9.2,28.6c-0.1,0.1-2.6-6.6-5.5-15l-5.3-15.2l2.1-3.2c4.4-6.9,6.4-12.7,5.6-16.8c-1.1-5.8-9.1-9-17.1-7c-4.3,1.1-6.3,2.5-7.5,5.5c-2.1,4.5-0.4,9.8,6.4,20.5c0.6,1,0.2,2.7-4.4,15.8c-2.8,8.1-5.3,14.9-5.5,15.1c-0.2,0.2-4.3-12.4-9.2-28c-4.9-15.6-9.1-28.6-9.2-29C72.6,138.2,71.7,138.5,69.9,139.4z"/><path fill="#000000" d="M196.9,160.6c-18.5,2-34.5,16.5-38.4,34.8c-1,4.7-1,13.9-0.1,18.5c1.7,8.2,6,16,11.9,22c12.4,12.6,31.6,16.6,48,10.1c10.3-4.1,19.8-13.1,24.1-23c2.7-6.2,3.6-10.4,3.6-18.1c0.1-8.6-0.8-12.2-4.4-19.8C233.3,168.3,215.7,158.7,196.9,160.6z M205.7,175.7c0.3,0.7,0.5,2.1,0.5,3.1c0,1.7,0.1,1.8,3,2.4c3.9,0.8,6.5,2.1,6.5,3.2c0,1.2-1.6,6.5-2.1,7.1c-0.2,0.2-1.7-0.1-3.4-0.7c-2-0.7-4.2-1.1-6.7-1.1c-3.2,0-3.8,0.2-5,1.3c-2.8,2.8-1.1,5.1,6.3,8.4c7,3.1,9.2,4.8,11.1,8.3c3.9,7.1,0.5,15.9-7.3,18.8l-2.7,1.1l-0.2,2.5c-0.3,5-0.2,5-4.1,5c-1.8,0-3.5-0.3-3.7-0.5c-0.2-0.3-0.5-1.8-0.6-3.4l-0.3-2.8l-3-0.6c-4.7-1-8-2.5-8-3.9c0-2.1,1.6-6.7,2.4-7c0.4-0.2,2,0.3,3.5,0.9c1.7,0.7,4.2,1.3,6.7,1.4c3.4,0.2,4.3,0.1,5.7-0.8c2-1.3,2.6-3.2,1.7-5.3c-0.6-1.6-3.9-3.6-9.7-5.9c-3.5-1.4-7.8-5-9.1-7.7c-1.1-2.3-1.2-7.3-0.1-9.8c1.3-3,3.6-5.2,7.2-7l3.5-1.7l0.2-2.6c0.2-4,0.2-4,3.8-4C205,174.3,205.2,174.4,205.7,175.7z"/></g></g></g>
</svg>